<?xml version="1.0" standalone="no"?>
<!DOCTYPE svg PUBLIC "-//W3C//DTD SVG 20010904//EN"
 "http://www.w3.org/TR/2001/REC-SVG-20010904/DTD/svg10.dtd">
<svg version="1.0" xmlns="http://www.w3.org/2000/svg"
 width="110.000000pt" height="110.000000pt" viewBox="0 0 110.000000 110.000000"
 preserveAspectRatio="xMidYMid meet">
<metadata>
Created by potrace 1.14, written by Peter Selinger 2001-2017
</metadata>
<g transform="translate(0.000000,110.000000) scale(0.100000,-0.100000)"
fill="#000000" stroke="none">
<path d="M396 1079 c-109 -37 -196 -112 -290 -249 -109 -158 -112 -366 -10
-561 56 -107 188 -223 277 -243 24 -6 27 -4 27 21 0 25 1 26 14 8 26 -35 269
-30 292 7 8 13 12 285 5 296 -3 4 -22 18 -41 30 -41 25 -37 29 9 6 17 -8 37
-14 43 -12 7 3 -6 13 -27 24 -53 25 -77 70 -85 157 -5 62 -3 77 17 117 22 45
65 80 98 80 50 0 110 -65 123 -133 21 -109 -10 -206 -75 -234 l-34 -14 2 -141
c3 -216 2 -214 106 -147 266 173 308 522 98 804 -122 163 -369 246 -549 184z
m197 -3 c104 -10 88 -21 -31 -21 -128 -1 -207 -20 -287 -72 l-40 -26 23 25
c47 51 214 115 267 102 6 -1 36 -5 68 -8z m230 -105 c79 -56 138 -122 169
-191 19 -41 38 -149 35 -202 -2 -44 -12 -42 -15 4 -6 73 -64 215 -117 284 -37
48 -107 114 -137 130 -16 8 -28 17 -28 19 0 9 53 -16 93 -44z m-530 -14 c-206
-152 -254 -427 -120 -687 l28 -55 -29 31 c-69 71 -113 206 -106 324 4 79 8 96
34 175 34 102 71 150 157 205 96 62 116 65 36 7z m503 -197 c38 -24 75 -93 79
-148 1 -20 1 -28 -2 -17 -20 95 -57 152 -113 174 -14 5 -19 10 -11 10 7 1 28
-8 47 -19z m-481 -269 c9 -23 26 2 29 40 2 19 4 79 5 133 0 55 3 97 6 94 3 -3
7 -57 10 -119 2 -63 4 -122 4 -132 1 -10 6 -17 13 -15 9 3 13 43 14 137 3 150
13 191 15 55 1 -133 6 -185 18 -197 17 -17 21 8 24 153 3 132 3 132 5 -37 2
-165 1 -173 -20 -192 -12 -12 -29 -23 -39 -26 -15 -5 -17 -24 -19 -172 0 -92
-2 -168 -4 -170 -1 -2 -27 9 -57 24 -77 38 -178 142 -217 225 -38 80 -42 104
-5 33 40 -78 81 -123 166 -187 43 -32 82 -58 86 -58 13 0 7 266 -7 283 -11 13
-10 15 10 10 19 -4 17 -1 -8 15 -18 11 -38 34 -47 51 -16 31 -15 50 4 296 2
22 5 -21 6 -95 2 -74 6 -141 8 -149z m-245 214 c-5 -14 -12 -54 -16 -90 -4
-35 -10 -62 -15 -60 -4 3 -6 15 -4 28 2 12 6 38 9 58 6 40 23 89 31 89 2 0 0
-11 -5 -25z m990 -200 c1 -128 -44 -237 -135 -328 -43 -43 -110 -91 -140 -101
-17 -5 -21 -1 -22 22 0 15 1 19 4 10 6 -22 25 -15 83 30 57 44 95 87 120 134
29 54 70 232 72 308 1 57 2 61 9 30 5 -19 9 -66 9 -105z m-195 -49 c-18 -37
-62 -86 -77 -86 -5 0 4 11 20 25 37 31 61 82 64 132 l1 38 4 -37 c3 -22 -3
-52 -12 -72z m-818 17 c-3 -10 -5 -2 -5 17 0 19 2 27 5 18 2 -10 2 -26 0 -35z
m21 -83 c0 -9 -3 -7 -8 5 -5 11 -8 29 -8 40 0 16 2 15 8 -5 4 -14 8 -32 8 -40z
m379 -5 c-15 -14 -33 -25 -40 -25 -6 0 4 11 23 25 45 31 53 31 17 0z"/>
<path d="M650 29 c-19 -5 -74 -9 -122 -10 -49 -1 -86 -4 -83 -9 7 -12 134 -12
194 1 62 12 101 29 66 28 -11 -1 -36 -5 -55 -10z"/>
</g>
</svg>
