<svg width="21" height="19" viewBox="0 0 21 19" fill="none" xmlns="http://www.w3.org/2000/svg">
<path opacity="0.4" d="M20 13.9402C20 16.7302 17.76 18.9902 14.97 19.0002H14.96H5.05C2.27 19.0002 0 16.7502 0 13.9602V13.9502C0 13.9502 0.006 9.52424 0.014 7.29824C0.015 6.88024 0.495 6.64624 0.822 6.90624C3.198 8.79124 7.447 12.2282 7.5 12.2732C8.21 12.8422 9.11 13.1632 10.03 13.1632C10.95 13.1632 11.85 12.8422 12.56 12.2622C12.613 12.2272 16.767 8.89324 19.179 6.97724C19.507 6.71624 19.989 6.95024 19.99 7.36724C20 9.57624 20 13.9402 20 13.9402Z" fill="#FB8F2C"/>
<path d="M19.9731 2.674C19.1071 1.042 17.4031 0 15.5271 0H5.54708C3.67108 0 1.96708 1.042 1.10108 2.674C0.907076 3.039 0.999076 3.494 1.32208 3.752L8.74708 9.691C9.26708 10.111 9.89708 10.32 10.5271 10.32C10.5311 10.32 10.5341 10.32 10.5371 10.32C10.5401 10.32 10.5441 10.32 10.5471 10.32C11.1771 10.32 11.8071 10.111 12.3271 9.691L19.7521 3.752C20.0751 3.494 20.1671 3.039 19.9731 2.674Z" fill="#FB8F2C"/>
</svg>
